<svg xmlns="http://www.w3.org/2000/svg" viewBox="0 0 1200 630"><defs><filter id="glitch"><feDisplacementMap in="SourceGraphic" scale="8"/></filter></defs><rect width="1200" height="630" fill="#ffffff"/><rect x="100" y="80" width="280" height="250" fill="#000000" stroke="#ff0000" stroke-width="12" opacity="0.9"/><rect x="110" y="70" width="280" height="250" fill="none" stroke="#0000ff" stroke-width="8" opacity="0.7"/><rect x="820" y="120" width="240" height="200" fill="#ffff00" stroke="#000000" stroke-width="14" opacity="0.8"/><rect x="830" y="110" width="240" height="200" fill="none" stroke="#ff0000" stroke-width="6" opacity="0.6"/><circle cx="600" cy="150" r="80" fill="#ff0000" stroke="#000000" stroke-width="10" opacity="0.85"/><circle cx="610" cy="140" r="80" fill="none" stroke="#0000ff" stroke-width="6" opacity="0.7"/><rect x="150" y="420" width="320" height="140" fill="#0000ff" stroke="#ffff00" stroke-width="10"/><rect x="140" y="410" width="320" height="140" fill="none" stroke="#ff0000" stroke-width="4" opacity="0.8"/><rect x="750" y="400" width="300" height="160" fill="#ffff00" stroke="#0000ff" stroke-width="12"/><rect x="760" y="390" width="300" height="160" fill="none" stroke="#000000" stroke-width="8" opacity="0.7"/><text x="600" y="320" fill="#ff0000" font-family="Arial, sans-serif" font-size="96" font-weight="900" letter-spacing="6" text-anchor="middle" opacity="0.9">ANTI</text><text x="620" y="380" fill="#0000ff" font-family="Arial, sans-serif" font-size="96" font-weight="900" letter-spacing="6" text-anchor="middle" opacity="0.8">DESIGN</text><line x1="100" y1="100" x2="500" y2="300" stroke="#000000" stroke-width="8"/><line x1="500" y1="100" x2="100" y2="300" stroke="#ff0000" stroke-width="6"/><line x1="800" y1="500" x2="1100" y2="200" stroke="#0000ff" stroke-width="8"/><line x1="1100" y1="500" x2="800" y2="200" stroke="#ffff00" stroke-width="6"/><rect x="50" y="50" width="1100" height="530" fill="none" stroke="#000000" stroke-width="20" opacity="0.5"/><rect x="45" y="45" width="1110" height="540" fill="none" stroke="#ff0000" stroke-width="4" opacity="0.3"/></svg>