<svg xmlns="http://www.w3.org/2000/svg" viewBox="0 0 1200 630">
  <defs>
    <linearGradient id="jrpgGlow" x1="0" y1="0" x2="0" y2="630" gradientUnits="userSpaceOnUse">
      <stop offset="0%" stop-color="#8b5cf6" stop-opacity="0.22"/>
      <stop offset="60%" stop-color="#8b5cf6" stop-opacity="0"/>
    </linearGradient>
  </defs>

  <rect width="1200" height="630" fill="#0b0b16"/>
  <rect width="1200" height="630" fill="url(#jrpgGlow)"/>

  <!-- Subtle grid -->
  <g opacity="0.08" stroke="#eef2ff" stroke-width="1">
    <path d="M0 105H1200M0 210H1200M0 315H1200M0 420H1200M0 525H1200"/>
    <path d="M150 0V630M300 0V630M450 0V630M600 0V630M750 0V630M900 0V630M1050 0V630"/>
  </g>

  <!-- UI window -->
  <rect x="290" y="160" width="620" height="310" fill="#1a1a2e" stroke="#8b5cf6" stroke-width="6"/>
  <rect x="320" y="190" width="560" height="250" fill="#111126" stroke="#fbbf24" stroke-width="4" opacity="0.95"/>

  <!-- Header -->
  <rect x="350" y="220" width="210" height="14" fill="#eef2ff" opacity="0.8"/>
  <rect x="760" y="220" width="90" height="14" fill="#fbbf24" opacity="0.9"/>

  <!-- Status bars -->
  <rect x="350" y="270" width="500" height="18" fill="#ffffff" opacity="0.08" stroke="#ffffff" stroke-width="1" stroke-opacity="0.18"/>
  <rect x="351" y="271" width="360" height="16" fill="#ef4444"/>
  <rect x="350" y="308" width="500" height="18" fill="#ffffff" opacity="0.08" stroke="#ffffff" stroke-width="1" stroke-opacity="0.18"/>
  <rect x="351" y="309" width="270" height="16" fill="#22c55e"/>

  <!-- Button -->
  <rect x="350" y="365" width="180" height="46" fill="#0b0b16" stroke="#fbbf24" stroke-width="4"/>

  <!-- Title -->
  <text x="600" y="130" text-anchor="middle" font-family="'Helvetica Neue', Helvetica, Arial, sans-serif" font-size="86" font-weight="900" fill="#eef2ff" letter-spacing="3">JRPG</text>
  <text x="600" y="510" text-anchor="middle" font-family="'Helvetica Neue', Helvetica, Arial, sans-serif" font-size="16" font-weight="800" fill="#fbbf24" letter-spacing="6">CLASSIC STATUS UI</text>
</svg>

