<svg xmlns="http://www.w3.org/2000/svg" viewBox="0 0 1200 630" fill="none">
  <defs>
    <filter id="goldenGlow" x="-20%" y="-20%" width="140%" height="140%">
      <feGaussianBlur in="SourceGraphic" stdDeviation="3" result="blur"/>
      <feFlood flood-color="#d4a843" result="color"/>
      <feComposite in="color" in2="blur" operator="in" result="glow"/>
      <feMerge>
        <feMergeNode in="glow"/>
        <feMergeNode in="SourceGraphic"/>
      </feMerge>
    </filter>
    <filter id="titleGlowGold" x="-10%" y="-10%" width="120%" height="120%">
      <feGaussianBlur in="SourceGraphic" stdDeviation="5" result="blur"/>
      <feMerge>
        <feMergeNode in="blur"/>
        <feMergeNode in="SourceGraphic"/>
      </feMerge>
    </filter>
  </defs>

  <!-- Background -->
  <rect width="1200" height="630" fill="#0a0a14"/>

  <!-- Faint large magic circle behind title -->
  <g opacity="0.05" stroke="#d4a843" fill="none" stroke-width="1">
    <circle cx="600" cy="315" r="200"/>
    <circle cx="600" cy="315" r="180"/>
    <circle cx="600" cy="315" r="160"/>
    <!-- Hexagram -->
    <polygon points="600,135 774,415 426,415"/>
    <polygon points="600,495 426,215 774,215"/>
    <!-- Cross lines -->
    <line x1="600" y1="115" x2="600" y2="515"/>
    <line x1="400" y1="315" x2="800" y2="315"/>
  </g>

  <!-- Sacred geometry dots -->
  <g fill="#d4a843" opacity="0.08">
    <circle cx="200" cy="100" r="2"/><circle cx="220" cy="80" r="1.5"/>
    <circle cx="1000" cy="550" r="2"/><circle cx="1020" cy="530" r="1.5"/>
    <circle cx="100" cy="500" r="1.5"/><circle cx="1100" cy="130" r="2"/>
    <circle cx="300" cy="580" r="1.5"/><circle cx="900" cy="60" r="2"/>
  </g>

  <!-- Card 1: Top-left -->
  <g filter="url(#goldenGlow)">
    <polygon points="120,90 350,90 370,105 370,255 350,270 120,270 100,255 100,105" fill="#0f0f22" stroke="#d4a843" stroke-width="1.5"/>
  </g>
  <!-- Concentric rings -->
  <polygon points="120,90 350,90 370,105 370,255 350,270 120,270 100,255 100,105" fill="none" stroke="#d4a843" stroke-width="0.6" opacity="0.4" transform="translate(-6,-6) scale(1.05)" transform-origin="235 180"/>
  <polygon points="120,90 350,90 370,105 370,255 350,270 120,270 100,255 100,105" fill="none" stroke="#d4a843" stroke-width="0.4" opacity="0.25" transform="translate(-12,-12) scale(1.10)" transform-origin="235 180"/>
  <!-- Card 1 content -->
  <rect x="130" y="120" width="90" height="8" rx="2" fill="#d4a843" opacity="0.7"/>
  <rect x="130" y="140" width="200" height="4" rx="2" fill="#2a2a44"/>
  <rect x="130" y="152" width="180" height="4" rx="2" fill="#2a2a44"/>
  <!-- Runic decorative strip -->
  <line x1="130" y1="170" x2="330" y2="170" stroke="#d4a843" stroke-width="0.8" opacity="0.3"/>
  <circle cx="160" cy="170" r="3" fill="none" stroke="#d4a843" stroke-width="0.6" opacity="0.4"/>
  <circle cx="200" cy="170" r="3" fill="none" stroke="#d4a843" stroke-width="0.6" opacity="0.4"/>
  <circle cx="240" cy="170" r="3" fill="none" stroke="#d4a843" stroke-width="0.6" opacity="0.4"/>
  <circle cx="280" cy="170" r="3" fill="none" stroke="#d4a843" stroke-width="0.6" opacity="0.4"/>
  <!-- Golden accent bars -->
  <rect x="130" y="190" width="160" height="8" rx="2" fill="#1a1a30"/>
  <rect x="130" y="190" width="110" height="8" rx="2" fill="#d4a843" opacity="0.35"/>
  <rect x="130" y="206" width="160" height="8" rx="2" fill="#1a1a30"/>
  <rect x="130" y="206" width="80" height="8" rx="2" fill="#d4a843" opacity="0.25"/>

  <!-- Card 2: Top-center -->
  <g filter="url(#goldenGlow)">
    <polygon points="470,70 730,70 750,85 750,260 730,275 470,275 450,260 450,85" fill="#0f0f22" stroke="#d4a843" stroke-width="1.5"/>
  </g>
  <polygon points="470,70 730,70 750,85 750,260 730,275 470,275 450,260 450,85" fill="none" stroke="#d4a843" stroke-width="0.6" opacity="0.4" transform="translate(-7,-7) scale(1.05)" transform-origin="600 172"/>
  <polygon points="470,70 730,70 750,85 750,260 730,275 470,275 450,260 450,85" fill="none" stroke="#d4a843" stroke-width="0.4" opacity="0.25" transform="translate(-14,-14) scale(1.10)" transform-origin="600 172"/>
  <!-- Card 2 content -->
  <rect x="480" y="100" width="110" height="8" rx="2" fill="#d4a843" opacity="0.7"/>
  <rect x="480" y="120" width="240" height="4" rx="2" fill="#2a2a44"/>
  <rect x="480" y="132" width="220" height="4" rx="2" fill="#2a2a44"/>
  <rect x="480" y="144" width="200" height="4" rx="2" fill="#2a2a44"/>
  <!-- Runic strip -->
  <line x1="480" y1="165" x2="720" y2="165" stroke="#d4a843" stroke-width="0.8" opacity="0.3"/>
  <circle cx="510" cy="165" r="3" fill="none" stroke="#d4a843" stroke-width="0.6" opacity="0.4"/>
  <circle cx="560" cy="165" r="3" fill="none" stroke="#d4a843" stroke-width="0.6" opacity="0.4"/>
  <circle cx="610" cy="165" r="3" fill="none" stroke="#d4a843" stroke-width="0.6" opacity="0.4"/>
  <circle cx="660" cy="165" r="3" fill="none" stroke="#d4a843" stroke-width="0.6" opacity="0.4"/>
  <!-- Bars -->
  <rect x="480" y="185" width="200" height="8" rx="2" fill="#1a1a30"/>
  <rect x="480" y="185" width="150" height="8" rx="2" fill="#d4a843" opacity="0.35"/>
  <rect x="480" y="201" width="200" height="8" rx="2" fill="#1a1a30"/>
  <rect x="480" y="201" width="100" height="8" rx="2" fill="#d4a843" opacity="0.25"/>
  <!-- Button -->
  <polygon points="480,225 560,225 570,232 570,245 560,252 480,252 470,245 470,232" fill="none" stroke="#d4a843" stroke-width="1" opacity="0.6"/>
  <rect x="488" y="234" width="40" height="5" rx="2" fill="#d4a843" opacity="0.5"/>

  <!-- Card 3: Top-right -->
  <g filter="url(#goldenGlow)">
    <polygon points="830,90 1060,90 1080,105 1080,255 1060,270 830,270 810,255 810,105" fill="#0f0f22" stroke="#d4a843" stroke-width="1.5"/>
  </g>
  <polygon points="830,90 1060,90 1080,105 1080,255 1060,270 830,270 810,255 810,105" fill="none" stroke="#d4a843" stroke-width="0.6" opacity="0.4" transform="translate(-6,-6) scale(1.05)" transform-origin="945 180"/>
  <polygon points="830,90 1060,90 1080,105 1080,255 1060,270 830,270 810,255 810,105" fill="none" stroke="#d4a843" stroke-width="0.4" opacity="0.25" transform="translate(-12,-12) scale(1.10)" transform-origin="945 180"/>
  <!-- Card 3 content -->
  <rect x="840" y="120" width="80" height="8" rx="2" fill="#d4a843" opacity="0.7"/>
  <rect x="840" y="140" width="200" height="4" rx="2" fill="#2a2a44"/>
  <rect x="840" y="152" width="170" height="4" rx="2" fill="#2a2a44"/>
  <line x1="840" y1="170" x2="1040" y2="170" stroke="#d4a843" stroke-width="0.8" opacity="0.3"/>
  <circle cx="870" cy="170" r="3" fill="none" stroke="#d4a843" stroke-width="0.6" opacity="0.4"/>
  <circle cx="910" cy="170" r="3" fill="none" stroke="#d4a843" stroke-width="0.6" opacity="0.4"/>
  <circle cx="950" cy="170" r="3" fill="none" stroke="#d4a843" stroke-width="0.6" opacity="0.4"/>
  <rect x="840" y="190" width="160" height="8" rx="2" fill="#1a1a30"/>
  <rect x="840" y="190" width="120" height="8" rx="2" fill="#d4a843" opacity="0.35"/>

  <!-- Card 4: Bottom-left -->
  <g filter="url(#goldenGlow)">
    <polygon points="200,380 480,380 500,395 500,560 480,575 200,575 180,560 180,395" fill="#0f0f22" stroke="#d4a843" stroke-width="1.5"/>
  </g>
  <polygon points="200,380 480,380 500,395 500,560 480,575 200,575 180,560 180,395" fill="none" stroke="#d4a843" stroke-width="0.6" opacity="0.4" transform="translate(-7,-7) scale(1.04)" transform-origin="340 477"/>
  <polygon points="200,380 480,380 500,395 500,560 480,575 200,575 180,560 180,395" fill="none" stroke="#d4a843" stroke-width="0.4" opacity="0.25" transform="translate(-14,-14) scale(1.08)" transform-origin="340 477"/>
  <!-- Card 4 content -->
  <rect x="215" y="408" width="100" height="8" rx="2" fill="#d4a843" opacity="0.7"/>
  <rect x="215" y="428" width="250" height="4" rx="2" fill="#2a2a44"/>
  <rect x="215" y="440" width="230" height="4" rx="2" fill="#2a2a44"/>
  <rect x="215" y="452" width="200" height="4" rx="2" fill="#2a2a44"/>
  <line x1="215" y1="470" x2="465" y2="470" stroke="#d4a843" stroke-width="0.8" opacity="0.3"/>
  <rect x="215" y="488" width="200" height="8" rx="2" fill="#1a1a30"/>
  <rect x="215" y="488" width="140" height="8" rx="2" fill="#d4a843" opacity="0.35"/>
  <rect x="215" y="506" width="200" height="8" rx="2" fill="#1a1a30"/>
  <rect x="215" y="506" width="90" height="8" rx="2" fill="#d4a843" opacity="0.25"/>

  <!-- Card 5: Bottom-right -->
  <g filter="url(#goldenGlow)">
    <polygon points="680,380 960,380 980,395 980,560 960,575 680,575 660,560 660,395" fill="#0f0f22" stroke="#d4a843" stroke-width="1.5"/>
  </g>
  <polygon points="680,380 960,380 980,395 980,560 960,575 680,575 660,560 660,395" fill="none" stroke="#d4a843" stroke-width="0.6" opacity="0.4" transform="translate(-7,-7) scale(1.04)" transform-origin="820 477"/>
  <polygon points="680,380 960,380 980,395 980,560 960,575 680,575 660,560 660,395" fill="none" stroke="#d4a843" stroke-width="0.4" opacity="0.25" transform="translate(-14,-14) scale(1.08)" transform-origin="820 477"/>
  <!-- Card 5 content -->
  <rect x="695" y="408" width="90" height="8" rx="2" fill="#d4a843" opacity="0.7"/>
  <rect x="695" y="428" width="240" height="4" rx="2" fill="#2a2a44"/>
  <rect x="695" y="440" width="210" height="4" rx="2" fill="#2a2a44"/>
  <line x1="695" y1="460" x2="945" y2="460" stroke="#d4a843" stroke-width="0.8" opacity="0.3"/>
  <!-- Button pair -->
  <polygon points="695,480 775,480 785,487 785,500 775,507 695,507 685,500 685,487" fill="none" stroke="#d4a843" stroke-width="1" opacity="0.6"/>
  <rect x="703" y="489" width="40" height="5" rx="2" fill="#d4a843" opacity="0.5"/>
  <polygon points="800,480 880,480 890,487 890,500 880,507 800,507 790,500 790,487" fill="none" stroke="#d4a843" stroke-width="1" opacity="0.4"/>
  <rect x="808" y="489" width="40" height="5" rx="2" fill="#d4a843" opacity="0.35"/>

  <!-- Title -->
  <text x="600" y="340" text-anchor="middle" font-family="Georgia, 'Times New Roman', serif" font-size="26" font-weight="bold" fill="#d4a843" filter="url(#titleGlowGold)" letter-spacing="6">MAGIC CIRCLE</text>
</svg>