<svg xmlns="http://www.w3.org/2000/svg" viewBox="0 0 400 300" fill="none">
  <!-- Background -->
  <rect width="400" height="300" fill="#f9fafb"/>

  <!-- Column 1 -->
  <rect x="30" y="25" width="100" height="80" rx="6" fill="#18181b"/>
  <rect x="30" y="110" width="100" height="55" rx="6" fill="#27272a"/>
  <rect x="30" y="170" width="100" height="70" rx="6" fill="#18181b"/>

  <!-- Column 2 -->
  <rect x="135" y="25" width="100" height="55" rx="6" fill="#27272a"/>
  <rect x="135" y="85" width="100" height="85" rx="6" fill="#18181b"/>
  <rect x="135" y="175" width="100" height="65" rx="6" fill="#3f3f46"/>

  <!-- Column 3 -->
  <rect x="240" y="25" width="100" height="70" rx="6" fill="#18181b"/>
  <rect x="240" y="100" width="100" height="50" rx="6" fill="#3f3f46"/>
  <rect x="240" y="155" width="100" height="85" rx="6" fill="#27272a"/>

  <!-- Subtle content lines -->
  <rect x="42" y="40" width="50" height="6" rx="2" fill="#ffffff" fill-opacity="0.3"/>
  <rect x="42" y="52" width="70" height="4" rx="2" fill="#ffffff" fill-opacity="0.12"/>
  <rect x="147" y="40" width="50" height="6" rx="2" fill="#ffffff" fill-opacity="0.3"/>
  <rect x="252" y="40" width="50" height="6" rx="2" fill="#ffffff" fill-opacity="0.3"/>

  <!-- Accent dot -->
  <circle cx="285" cy="138" r="4" fill="#6366f1"/>

  <!-- Label -->
  <text x="200" y="268" text-anchor="middle" font-family="Arial, sans-serif" font-size="13" font-weight="bold" fill="#18181b">MASONRY FLOW</text>
  <text x="200" y="286" text-anchor="middle" font-family="Arial, sans-serif" font-size="10" fill="#9ca3af">Waterfall variable-height columns</text>
</svg>