<svg xmlns="http://www.w3.org/2000/svg" viewBox="0 0 1200 630">
  <rect width="1200" height="630" fill="#f5f5f5"/>
  <!-- Background soft shapes -->
  <circle cx="180" cy="120" r="80" fill="#f472b6" opacity="0.06"/>
  <circle cx="1020" cy="520" r="100" fill="#a3e635" opacity="0.06"/>
  <circle cx="1050" cy="100" r="60" fill="#38bdf8" opacity="0.06"/>
  <!-- Card 1 - top left -->
  <g>
    <rect x="104" y="134" width="260" height="170" rx="8" fill="#f472b6" opacity="0.15"/>
    <rect x="96" y="126" width="260" height="170" rx="8" fill="#ffffff" stroke="#374151" stroke-width="1.5"/>
    <rect x="122" y="156" width="100" height="10" rx="4" fill="#374151" opacity="0.5"/>
    <rect x="122" y="180" width="200" height="6" rx="3" fill="#374151" opacity="0.12"/>
    <rect x="122" y="196" width="170" height="6" rx="3" fill="#374151" opacity="0.12"/>
    <rect x="122" y="212" width="140" height="6" rx="3" fill="#374151" opacity="0.12"/>
    <rect x="122" y="250" width="80" height="28" rx="6" fill="#f472b6" opacity="0.2" stroke="#374151" stroke-width="1"/>
    <text x="162" y="269" text-anchor="middle" font-family="system-ui, -apple-system, sans-serif" font-size="11" fill="#374151" font-weight="500">View</text>
  </g>
  <!-- Card 2 - top right -->
  <g>
    <rect x="884" y="114" width="240" height="190" rx="8" fill="#38bdf8" opacity="0.15"/>
    <rect x="876" y="106" width="240" height="190" rx="8" fill="#ffffff" stroke="#374151" stroke-width="1.5"/>
    <circle cx="996" cy="176" r="30" fill="#38bdf8" opacity="0.15" stroke="#374151" stroke-width="1"/>
    <path d="M986 176 L996 166 L1006 176 L996 186 Z" fill="#38bdf8" opacity="0.4"/>
    <rect x="906" y="226" width="180" height="6" rx="3" fill="#374151" opacity="0.12"/>
    <rect x="906" y="242" width="140" height="6" rx="3" fill="#374151" opacity="0.12"/>
    <rect x="906" y="258" width="160" height="6" rx="3" fill="#374151" opacity="0.12"/>
  </g>
  <!-- Card 3 - bottom left -->
  <g>
    <rect x="134" y="404" width="220" height="150" rx="8" fill="#a3e635" opacity="0.15"/>
    <rect x="126" y="396" width="220" height="150" rx="8" fill="#ffffff" stroke="#374151" stroke-width="1.5"/>
    <rect x="152" y="420" width="70" height="50" rx="8" fill="#a3e635" opacity="0.15" stroke="#374151" stroke-width="1"/>
    <rect x="152" y="486" width="160" height="6" rx="3" fill="#374151" opacity="0.12"/>
    <rect x="152" y="502" width="120" height="6" rx="3" fill="#374151" opacity="0.12"/>
    <rect x="152" y="518" width="90" height="6" rx="3" fill="#374151" opacity="0.12"/>
  </g>
  <!-- Card 4 - bottom right -->
  <g>
    <rect x="864" y="384" width="250" height="165" rx="8" fill="#f472b6" opacity="0.12"/>
    <rect x="856" y="376" width="250" height="165" rx="8" fill="#ffffff" stroke="#374151" stroke-width="1.5"/>
    <rect x="886" y="406" width="190" height="8" rx="4" fill="#e5e7eb"/>
    <rect x="886" y="406" width="120" height="8" rx="4" fill="#a3e635" opacity="0.4"/>
    <rect x="886" y="428" width="190" height="8" rx="4" fill="#e5e7eb"/>
    <rect x="886" y="428" width="80" height="8" rx="4" fill="#38bdf8" opacity="0.4"/>
    <rect x="886" y="450" width="190" height="8" rx="4" fill="#e5e7eb"/>
    <rect x="886" y="450" width="150" height="8" rx="4" fill="#f472b6" opacity="0.3"/>
    <rect x="886" y="486" width="90" height="28" rx="6" fill="#38bdf8" opacity="0.15" stroke="#374151" stroke-width="1"/>
    <text x="931" y="505" text-anchor="middle" font-family="system-ui, -apple-system, sans-serif" font-size="11" fill="#374151" font-weight="500">Details</text>
  </g>
  <!-- Main title -->
  <text x="600" y="300" text-anchor="middle" font-family="system-ui, -apple-system, 'Segoe UI', sans-serif" font-size="58" font-weight="800" fill="#374151" letter-spacing="-1">NEO-BRUTALIST</text>
  <text x="600" y="370" text-anchor="middle" font-family="system-ui, -apple-system, 'Segoe UI', sans-serif" font-size="58" font-weight="800" fill="#374151" letter-spacing="-1">SOFT</text>
  <!-- Label pill -->
  <rect x="490" y="392" width="220" height="30" rx="15" fill="#a3e635" opacity="0.15" stroke="#374151" stroke-width="1"/>
  <text x="600" y="412" text-anchor="middle" font-family="system-ui, -apple-system, sans-serif" font-size="12" fill="#374151" letter-spacing="4" font-weight="500">GENTLE CONTRAST</text>
  <!-- Floating soft dots -->
  <circle cx="460" cy="170" r="6" fill="#f472b6" opacity="0.15"/>
  <circle cx="740" cy="490" r="5" fill="#a3e635" opacity="0.15"/>
  <circle cx="530" cy="510" r="4" fill="#38bdf8" opacity="0.12"/>
</svg>